<?xml version="1.0" encoding="UTF-8" standalone="no"?>
<svg
   id="SvgjsSvg1001"
   width="120.15035247802734"
   height="120.15035247802734"
   version="1.1"
   viewBox="0 0 120.15035247802734 120.15035247802734"
   sodipodi:docname="tcss.svg"
   inkscape:export-filename="symbol.png"
   inkscape:export-xdpi="319.60001"
   inkscape:export-ydpi="319.60001"
   inkscape:version="1.2.2 (b0a8486541, 2022-12-01)"
   xmlns:inkscape="http://www.inkscape.org/namespaces/inkscape"
   xmlns:sodipodi="http://sodipodi.sourceforge.net/DTD/sodipodi-0.dtd"
   xmlns="http://www.w3.org/2000/svg"
   xmlns:svg="http://www.w3.org/2000/svg">
  <sodipodi:namedview
     id="namedview10"
     pagecolor="#ffffff"
     bordercolor="#666666"
     borderopacity="1.0"
     inkscape:showpageshadow="false"
     inkscape:pageopacity="0.0"
     inkscape:pagecheckerboard="0"
     inkscape:deskcolor="#d1d1d1"
     showgrid="false"
     showborder="false"
     borderlayer="false"
     shape-rendering="crispEdges"
     showguides="false"
     inkscape:zoom="8.5476237"
     inkscape:cx="60.01668"
     inkscape:cy="60.01668"
     inkscape:window-width="3440"
     inkscape:window-height="1371"
     inkscape:window-x="0"
     inkscape:window-y="32"
     inkscape:window-maximized="1"
     inkscape:current-layer="SvgjsSvg1001" />
  <defs
     id="SvgjsDefs1002" />
  <g
     id="SvgjsG1009"
     transform="matrix(1,0,0,1,-13.490657806396484,-22.452468872070312)">
    <title
       id="title4">0410_concentric_circles_verti</title>
    <path
       id="color_2"
       d="M73.54069,112.39007A29.94879,29.94879,0,0,1,50.96448,102.118a9.52221,9.52221,0,0,0,3.132-1.96913,25.84386,25.84386,0,0,0,19.45768,8.66257,26.32909,26.32909,0,0,0,0-52.65817c-11.41909,0-26.69055,8.64924-26.197,27.5831a9.42077,9.42077,0,0,0-3.61666.797,29.886,29.886,0,1,1,59.7-2.03334A29.78956,29.78956,0,0,1,73.54069,112.39007Zm36.83549-45.62082a9.44031,9.44031,0,0,1-3.13662,1.79668A36.47914,36.47914,0,1,1,57.783,49.56444h0a36.42992,36.42992,0,0,1,38.63683,4.53715,9.58725,9.58725,0,0,1,2.582-2.49112,40.04135,40.04135,0,1,0-25.52874,70.95847,40.11826,40.11826,0,0,0,39.72043-34.27212,39.85569,39.85569,0,0,0-2.81736-21.52757Z"
       fill="#0369a1" />
    <path
       id="color_1"
       d="M65.53152,71.99279a1.6876,1.6876,0,1,1,1.6876,1.68759A1.68714,1.68714,0,0,1,65.53152,71.99279Zm7.95165,1.68759a1.6876,1.6876,0,1,0-1.6876-1.68759A1.68811,1.68811,0,0,0,73.48317,73.68038Zm-9.39684,4.21516a1.68722,1.68722,0,1,0-1.6876-1.68683A1.687,1.687,0,0,0,64.08633,77.89554Zm6.264,0a1.68722,1.68722,0,1,0-1.6876-1.68683A1.687,1.687,0,0,0,70.35038,77.89554Zm6.26558,0a1.68722,1.68722,0,1,0-1.6876-1.68683A1.688,1.688,0,0,0,76.616,77.89554Zm-15.66242.84073a1.6876,1.6876,0,1,0,1.68759,1.68759A1.68811,1.68811,0,0,0,60.95354,78.73627Zm6.26558,0a1.6876,1.6876,0,1,0,1.6876,1.68759A1.68713,1.68713,0,0,0,67.21912,78.73627Zm6.264,3.37519a1.6876,1.6876,0,1,0-1.6876-1.6876A1.68812,1.68812,0,0,0,73.48317,82.11146Zm-9.39684.84A1.6876,1.6876,0,1,0,65.77392,84.639,1.68713,1.68713,0,0,0,64.08633,82.95142Zm6.264,3.37519a1.6876,1.6876,0,1,0-1.6876-1.6876A1.68713,1.68713,0,0,0,70.35038,86.32661Zm6.26558,0a1.6876,1.6876,0,1,0-1.6876-1.6876A1.68811,1.68811,0,0,0,76.616,86.32661Zm3.13125-12.64623a1.6876,1.6876,0,1,0-1.68759-1.68759A1.68713,1.68713,0,0,0,79.74721,73.68038ZM82.88,77.89554a1.68722,1.68722,0,1,0-1.68759-1.68683A1.687,1.687,0,0,0,82.88,77.89554Zm-3.13279,4.21592a1.6876,1.6876,0,1,0-1.68759-1.6876A1.68714,1.68714,0,0,0,79.74721,82.11146Zm6.26559,0a1.6876,1.6876,0,1,0-1.6876-1.6876A1.68812,1.68812,0,0,0,86.0128,82.11146Zm-3.1328.84A1.6876,1.6876,0,1,0,84.5676,84.639,1.68712,1.68712,0,0,0,82.88,82.95142ZM67.21912,87.16734a1.68721,1.68721,0,1,0,1.6876,1.68683A1.68648,1.68648,0,0,0,67.21912,87.16734Zm6.264,0a1.68721,1.68721,0,1,0,1.68759,1.68683A1.68746,1.68746,0,0,0,73.48317,87.16734Zm-3.13279,4.21515a1.68722,1.68722,0,1,0,1.68759,1.6876A1.68811,1.68811,0,0,0,70.35038,91.38249Zm6.26558,0a1.68722,1.68722,0,1,0,1.68759,1.6876A1.68713,1.68713,0,0,0,76.616,91.38249Zm3.13125-4.21515a1.68721,1.68721,0,1,0,1.6876,1.68683A1.68745,1.68745,0,0,0,79.74721,87.16734Zm12.657-4.8411a18.953,18.953,0,0,1-14.80481,18.58963l-.00768.0023a18.98259,18.98259,0,0,1-3.89374.438c-.05369,0-.10892.00077-.16415.00077A18.8597,18.8597,0,1,1,92.40418,82.32624Zm-5.8759,8.112a1.657,1.657,0,0,1-.51548.10355,1.68721,1.68721,0,1,1,0-3.37442,1.6697,1.6697,0,0,1,1.58327,1.17211,15.30534,15.30534,0,0,0,.73794-2.2491,1.64305,1.64305,0,0,1,.43724-3.06376c.00767-.22552.05523-.44184.05216-.6689a15.20805,15.20805,0,0,0-.98955-5.13029,1.65806,1.65806,0,0,1-.37587-1.01409,15.1591,15.1591,0,0,0-1.44519-2.53293,1.51892,1.51892,0,0,1-1.64157-1.91925c-.09052-.09282-.15649-.20251-.25008-.293L84.115,71.462a15.19014,15.19014,0,0,0-5.859-3.4519,1.66782,1.66782,0,0,1-1.64,1.45517,1.68713,1.68713,0,0,1-1.6876-1.68759,1.65814,1.65814,0,0,1,.08745-.43648C74.52334,67.2936,74.04007,67.2,73.5384,67.2c-.04449,0-.089,0-.13348.00076-.494.00461-.96653.1051-1.45133.155a1.61555,1.61555,0,0,1,.08438.4219,1.68712,1.68712,0,0,1-1.68759,1.68759A1.66666,1.66666,0,0,1,68.718,68.04842a15.17886,15.17886,0,0,0-6.07994,3.72882c-.01228.01227-.02.02761-.03222.03988a1.36976,1.36976,0,0,1,.03528.17567A1.67024,1.67024,0,0,1,61.13,73.6451a15.15323,15.15323,0,0,0-1.70754,2.99011,1.5574,1.5574,0,0,1-.13654.3636A15.21274,15.21274,0,0,0,58.24878,82.62c.00154.145.03989.28229.04449.4265a1.63983,1.63983,0,0,1,.4081,2.99778,15.1783,15.1783,0,0,0,.68884,2.2,1.68344,1.68344,0,1,1,1.56333,2.29743,1.66156,1.66156,0,0,1-.402-.08054,15.42463,15.42463,0,0,0,1.87784,2.45315,1.67492,1.67492,0,1,1,2.00363,1.77274,15.30551,15.30551,0,0,0,1.89011,1.20433,1.63426,1.63426,0,0,1,.896-.2938,1.66533,1.66533,0,0,1,1.62623,1.38307,14.82939,14.82939,0,0,0,3.01773.64051,1.63,1.63,0,0,1-.06751-.336,1.69574,1.69574,0,1,1,3.30922.32985,15.25125,15.25125,0,0,0,1.71828-.19331l.00307-.00077c.44491-.09818.85914-.26924,1.28871-.405a1.66493,1.66493,0,0,1,1.63236-1.41835,1.6444,1.6444,0,0,1,.95273.33139,15.03477,15.03477,0,0,0,1.92079-1.22428,1.66476,1.66476,0,0,1-1.42832-1.63466,1.68074,1.68074,0,0,1,3.35985-.08055A15.48567,15.48567,0,0,0,86.52828,90.43821Zm-38.95675.40212A2.40248,2.40248,0,1,0,49.974,93.24281a2.40248,2.40248,0,0,0-2.40247-2.40248m0-3.50779a5.91027,5.91027,0,1,1-5.91027,5.91027,5.917,5.917,0,0,1,5.91027-5.91027Zm56.613-30.14913a2.40248,2.40248,0,1,0,2.40247,2.40248,2.4025,2.4025,0,0,0-2.40247-2.40248m0-3.50779a5.91027,5.91027,0,1,1-5.91027,5.91027,5.917,5.917,0,0,1,5.91027-5.91027Z"
       fill="#0ea5e9" />
  </g>
</svg>
